<?xml version="1.0" encoding="utf-8"?>
<!-- Generator: Adobe Illustrator 19.1.0, SVG Export Plug-In . SVG Version: 6.00 Build 0)  -->
<!DOCTYPE svg PUBLIC "-//W3C//DTD SVG 1.1//EN" "http://www.w3.org/Graphics/SVG/1.1/DTD/svg11.dtd">
<svg version="1.1" id="Layer_1" xmlns="http://www.w3.org/2000/svg" xmlns:xlink="http://www.w3.org/1999/xlink" x="0px" y="0px"
	 viewBox="-155 430 300 150" style="enable-background:new -155 430 300 150;" xml:space="preserve">
<style type="text/css">
	.st0{fill:#212121;}
</style>
<path class="st0" d="M-62.1,467.6c-20.6,0-37.4,16.8-37.4,37.4s16.8,37.4,37.4,37.4s37.4-16.8,37.4-37.4S-41.5,467.6-62.1,467.6z
	 M-62.1,534.4c-16.2,0-29.4-13.2-29.4-29.4s13.2-29.4,29.4-29.4s29.4,13.2,29.4,29.4S-45.9,534.4-62.1,534.4z M18.8,467.6
	c-20.6,0-37.4,16.8-37.4,37.4s16.8,37.4,37.4,37.4s37.4-16.8,37.4-37.4S39.4,467.6,18.8,467.6z M18.8,534.4
	c-16.2,0-29.4-13.2-29.4-29.4s13.2-29.4,29.4-29.4s29.4,13.2,29.4,29.4S35,534.4,18.8,534.4z M-126.4,490c-7.2-1-14.2,0.9-19.9,5.3
	v-19.8h33.6c1.2,0,2-0.2,2-3.7c0-3.4-1.4-3.5-2.2-3.5h-37.2c-2.2,0-3.3,1.7-3.3,3.7v32.5c0,1.7,1.1,2.3,3.1,2.7
	c1.8,0.3,2.8,0.1,3.6-0.7l0.1-0.1c3.5-5.1,11.2-10,18.6-9.2c8.7,1.1,15.8,8,16.7,16.6c0.6,5.4-1,10.7-4.7,14.7
	c-3.6,4-8.7,6.3-14.1,6.3c-7.9,0-14.9-5.1-17.8-12.5c-0.4-1.1-1.2-1.9-4.3-0.8c-2.9,1-3,2.3-2.6,3.3c3.8,10.4,13.7,17.3,24.7,17.3
	c7.5,0,14.6-3.2,19.6-8.8s7.3-12.9,6.5-20.5C-105.4,501.2-114.6,491.7-126.4,490z M81.7,468c-10,0.8-17.9,9.6-17.9,20.1v33.3
	c0,1.9,1.5,2.3,3.7,2.3s3.7-0.4,3.7-2.3V488c0-6.6,4.8-12.2,10.9-12.8c3.5-0.4,6.9,0.7,9.5,3.1c2.6,2.3,4,5.6,4,9.1
	c0,1-0.5,4.2-2.7,7.3c-1.7,2.3-4.9,5-10.5,5h-0.1c-1.5,0-2.7,0.1-2.9,3.5c-0.2,2.3-0.1,3.4,1.9,3.6c3.6,0.5,7.2-0.2,10.8-2.1
	c6.2-3.2,10.3-9.3,10.8-15.8c0.4-5.7-1.6-11.3-5.6-15.3C93,469.6,87.4,467.6,81.7,468z M130.7,487.5l13.6-13.6
	c0.5-0.5,1.6-1.6-0.7-4.1c-1-1-1.9-1.6-2.7-1.6l0,0c-0.7,0-1.1,0.4-1.5,0.7l-13.6,13.6L112.2,469c-1.1-1.1-2.4-0.8-4,0.8
	c-1.7,1.7-2,3-0.9,4.1l13.6,13.7l-13.3,13.3l-0.1,0.1c-0.3,0.3-0.8,0.8-0.8,1.6s0.5,1.7,1.6,2.8c0.9,0.9,1.7,1.3,2.5,1.3l0,0
	c0.9,0,1.4-0.6,1.7-0.9l13.3-13.3l13.7,13.5c0.2,0.2,0.7,0.6,1.4,0.6l0,0c0.9,0,1.8-0.5,2.7-1.5c1.5-1.6,1.8-2.9,0.8-4L130.7,487.5z
	"/>
</svg>
