<?xml version="1.0" encoding="utf-8"?>
<!-- Generator: Adobe Illustrator 19.1.0, SVG Export Plug-In . SVG Version: 6.00 Build 0)  -->
<!DOCTYPE svg PUBLIC "-//W3C//DTD SVG 1.1//EN" "http://www.w3.org/Graphics/SVG/1.1/DTD/svg11.dtd">
<svg version="1.1" id="Layer_1" xmlns="http://www.w3.org/2000/svg" xmlns:xlink="http://www.w3.org/1999/xlink" x="0px" y="0px"
	 viewBox="-137 142 300 150" style="enable-background:new -137 142 300 150;" xml:space="preserve">
<style type="text/css">
	.st0{fill:#FFFFFF;}
</style>
<g>
	<path class="st0" d="M-58.9,236c-7.3,0-10.8-5.9-10.8-11.5c0-5.7,3.5-11.5,10.9-11.5c5.8,0,10.5,4.6,10.5,11.6
		C-48.2,231.3-53.3,236-58.9,236 M-48.6,214L-48.6,214c-2.1-2.4-5.2-5.2-10.6-5.2c-8.8,0-15.5,6.6-15.5,15.7
		c0,9.6,7.1,15.8,15.1,15.8c5,0,8.6-2.4,10.8-5h0.1v3.9h4.9v-29.4h-4.9L-48.6,214L-48.6,214z"/>
	<path class="st0" d="M-5.8,208.8c-5.1,0-8.7,3.1-10.2,6.1c-1.2-3.4-5-6.1-9.6-6.1c-3.8,0-6.8,2-8.8,4.7h-0.1v-3.7h-4.9v29.5h4.9
		v-16.4c0-6.2,3.1-9.7,8.1-9.7c4.4,0,7,3.7,7,8.6v17.6h4.9v-16.5c0-6.8,3.9-9.7,8-9.7c5,0,7.1,4,7.1,8.6v17.6h4.9v-17.3
		C5.5,213.4,0.9,208.8-5.8,208.8"/>
	<path class="st0" d="M59.5,235.9c-5.7,0-10.7-4.7-10.7-11.4c0-6.5,4.4-11.3,10.7-11.3c6.5,0,10.7,5.1,10.7,11.3
		C70.2,231,65.7,235.9,59.5,235.9 M59.5,208.8c-8.9,0-15.8,6.6-15.8,15.7c0,8.9,6.8,15.8,15.8,15.8c9.1,0,15.8-7.1,15.8-15.8
		C75.3,215.6,68.7,208.8,59.5,208.8"/>
	<path class="st0" d="M94.2,235.9c-5.7,0-10.7-4.7-10.7-11.4c0-6.5,4.4-11.3,10.7-11.3c6.5,0,10.7,5.1,10.7,11.3
		C104.9,231,100.4,235.9,94.2,235.9 M94.2,208.8c-8.9,0-15.8,6.6-15.8,15.7c0,8.9,6.8,15.8,15.8,15.8c9.1,0,15.8-7.1,15.8-15.8
		C109.9,215.6,103.4,208.8,94.2,208.8"/>
	<polygon class="st0" points="133,222.4 117.4,222.4 117.4,209.9 113.8,209.9 113.8,239.3 117.4,239.3 117.4,225.7 133,225.7 
		133,239.3 136.6,239.3 136.6,209.9 133,209.9 	"/>
	<path class="st0" d="M145.7,223.7v-10.5h5.3c3.8,0,5.9,1.9,5.9,5.3c0,2.8-1.9,5.2-5.8,5.2H145.7z M153.7,226.7
		c3.7-0.7,6.8-4,6.8-8.1c0-4.1-2.6-8.6-10-8.6H142v29.4h3.6V227h3.9l8.9,12.3h4.5L153.7,226.7z"/>
	<path class="st0" d="M-94.6,235.8c-6.2,0-11.4-4.8-11.4-11.3s4.4-11.8,11.5-11.8s11.2,5.7,11.2,11.7
		C-83.2,230.9-87.6,235.8-94.6,235.8 M-94.1,208c-5.7,0-8.7,1.9-10.8,4.1l-0.6,0.6v-19h-4.9v31.1c0,9.6,7.4,15.5,15.8,15.5
		c9.3,0,16.4-7.2,16.4-16.4C-78.2,215.3-85.5,208-94.1,208"/>
	<path class="st0" d="M24.8,235.9c-6.2,0-11.4-4.8-11.4-11.3s4.4-11.8,11.5-11.8s11.2,5.7,11.2,11.7
		C36.2,230.9,31.7,235.9,24.8,235.9 M25.3,208.1c-5.7,0-8.7,1.9-10.8,4.1l-0.6,0.6v-16.1H9v28.2c0,9.6,7.4,15.5,15.8,15.5
		c9.3,0,16.4-7.2,16.4-16.4C41.2,215.4,33.8,208.1,25.3,208.1"/>
	<path class="st0" d="M-112.7,214.3c0,0-2.1-0.4-3.9-0.7c-2-0.3-2.9-0.6-5.5-1.7s-4.9-3.6-7.2-6.5c-2.3-2.8-7.7-7.4-7.7-7.4
		s1.7,0.1,3.3,0.5c1.4,0.3,5,1.5,8.7,3.4c0.8,0.4,1.3,0.7,2.1,1.2c1.2,0.8,2.5,1.9,3.8,3.1c1.5,1.5,2.7,2.7,3.8,4
		c-1.2-2.2-4.3-10-10.3-16.5c-0.6-0.6,4.1,2.3,5.4,3.6c3.7,3.9,4,6,5.3,9.8L-112.7,214.3z"/>
</g>
</svg>
