<?xml version="1.0" encoding="utf-8"?>
<!-- Generator: Adobe Illustrator 19.1.0, SVG Export Plug-In . SVG Version: 6.00 Build 0)  -->
<!DOCTYPE svg PUBLIC "-//W3C//DTD SVG 1.1//EN" "http://www.w3.org/Graphics/SVG/1.1/DTD/svg11.dtd">
<svg version="1.1" id="Layer_1" xmlns="http://www.w3.org/2000/svg" xmlns:xlink="http://www.w3.org/1999/xlink" x="0px" y="0px"
	 viewBox="-155 430 300 150" style="enable-background:new -155 430 300 150;" xml:space="preserve">
<style type="text/css">
	.st0{fill:#212121;}
</style>
<g>
	<g>
		<g>
			<g>
				<path class="st0" d="M-123.8,480.6v30.5h8.6v-30.5H-123.8z"/>
			</g>
			<g>
				<path class="st0" d="M-102.4,496h-2.6l8.8-15.4h-6.5l-8.9,15.4l9.6,15.1h9.5L-102.4,496z"/>
			</g>
		</g>
		<g>
			<path class="st0" d="M74.9,480.6c0,0,0,15.3,0,19.5c-2.4-3.7-12.9-19.5-12.9-19.5h-7.1v30.5h7.7c0,0,0-15.5,0-19.6
				c2.4,3.6,13.1,19.6,13.1,19.6h6.8v-30.5H74.9z"/>
		</g>
		<path class="st0" d="M-3.8,480.6h-7.5v30.6H6.9V506H-3.8V480.6z"/>
		<path class="st0" d="M-73.1,480.6l-13.6,30.5h6.1l3.3-7.8h10.5l3.1,7.8h8.7l-13.3-30.5H-73.1z M-68.6,498.9h-6.8l3.5-8.1
			L-68.6,498.9z"/>
		<path class="st0" d="M27.6,480.6L14,511.1h6.1l3.3-7.8h10.5l3.1,7.8h8.7l-13.4-30.5H27.6z M32,498.9h-6.8l3.5-8.1L32,498.9z"/>
		<path class="st0" d="M-44.5,480.4v30.7h7.5c0,0,0-9.4,0-10.8c0.6,0,3.6,0,3.6,0c0.3,0,2.7,0.1,5.2-0.7s6.4-4.1,6.4-9.2
			c0-2.6-0.7-4.8-2-6.4c-2-2.5-5.3-3.6-10.4-3.6H-44.5z M-34.9,485.5c3.8,0,5.5,1.5,5.5,4.7c0,1.8-0.5,3.3-1.6,4.2
			c-0.8,0.7-1.8,0.9-4.4,0.9c0,0-1.1,0-1.7,0c0-1.3,0-8.5,0-9.8C-36.4,485.5-34.9,485.5-34.9,485.5z"/>
	</g>
	<path class="st0" d="M94.9,465h-5.4c12.7,7.4,20.5,16.2,20.5,25.7c0,27.8-59.1,48.3-131.1,48.3c-41.6,0-78.7-7.2-102.6-18.5v5.9
		C-99,537.8-62.2,545-21.2,545c77.8,0,134.9-23.7,134.9-53C113.8,482.2,106.9,472.9,94.9,465z"/>
</g>
</svg>
