<?xml version="1.0" encoding="utf-8"?>
<!-- Generator: Adobe Illustrator 19.1.0, SVG Export Plug-In . SVG Version: 6.00 Build 0)  -->
<!DOCTYPE svg PUBLIC "-//W3C//DTD SVG 1.1//EN" "http://www.w3.org/Graphics/SVG/1.1/DTD/svg11.dtd">
<svg version="1.1" id="Layer_1" xmlns="http://www.w3.org/2000/svg" xmlns:xlink="http://www.w3.org/1999/xlink" x="0px" y="0px"
	 viewBox="-137 142 300 150" style="enable-background:new -137 142 300 150;" xml:space="preserve">
<style type="text/css">
	.st0{fill:#FFFFFF;}
</style>
<g>
	<g>
		<g>
			<g>
				<path class="st0" d="M-105.8,192.6v30.5h8.6v-30.5H-105.8z"/>
			</g>
			<g>
				<path class="st0" d="M-84.4,208H-87l8.8-15.4h-6.5l-8.9,15.4l9.6,15.1h9.5L-84.4,208z"/>
			</g>
		</g>
		<g>
			<path class="st0" d="M92.9,192.6c0,0,0,15.3,0,19.5c-2.4-3.7-12.9-19.5-12.9-19.5h-7.1v30.5h7.7c0,0,0-15.5,0-19.6
				c2.4,3.6,13.1,19.6,13.1,19.6h6.8v-30.5H92.9z"/>
		</g>
		<path class="st0" d="M14.2,192.6H6.7v30.6h18.2V218H14.2V192.6z"/>
		<path class="st0" d="M-55.1,192.6l-13.6,30.5h6.1l3.3-7.8h10.5l3.1,7.8h8.7l-13.3-30.5H-55.1z M-50.6,210.9h-6.8l3.5-8.1
			L-50.6,210.9z"/>
		<path class="st0" d="M45.6,192.6L32,223.1h6.1l3.3-7.8h10.5l3.1,7.8h8.7l-13.4-30.5H45.6z M50,210.9h-6.8l3.5-8.1L50,210.9z"/>
		<path class="st0" d="M-26.5,192.4v30.7h7.5c0,0,0-9.4,0-10.8c0.6,0,3.6,0,3.6,0c0.3,0,2.7,0.1,5.2-0.7c2.5-0.8,6.4-4.1,6.4-9.2
			c0-2.6-0.7-4.8-2-6.4c-2-2.5-5.3-3.6-10.4-3.6C-16.2,192.4-26.5,192.4-26.5,192.4z M-16.9,197.5c3.8,0,5.5,1.5,5.5,4.7
			c0,1.8-0.5,3.3-1.6,4.2c-0.8,0.7-1.8,0.9-4.4,0.9c0,0-1.1,0-1.7,0c0-1.3,0-8.5,0-9.8C-18.4,197.5-16.9,197.5-16.9,197.5z"/>
	</g>
	<path class="st0" d="M112.9,177h-5.4c12.7,7.4,20.5,16.2,20.5,25.7C128,230.5,68.9,251-3.1,251c-41.6,0-78.7-7.2-102.6-18.5v5.9
		C-81,249.8-44.2,257-3.2,257c77.8,0,134.9-23.7,134.9-53C131.8,194.2,124.9,184.9,112.9,177z"/>
</g>
</svg>
