<?xml version="1.0" encoding="utf-8"?>
<!-- Generator: Adobe Illustrator 19.1.0, SVG Export Plug-In . SVG Version: 6.00 Build 0)  -->
<!DOCTYPE svg PUBLIC "-//W3C//DTD SVG 1.1//EN" "http://www.w3.org/Graphics/SVG/1.1/DTD/svg11.dtd">
<svg version="1.1" id="Layer_1" xmlns="http://www.w3.org/2000/svg" xmlns:xlink="http://www.w3.org/1999/xlink" x="0px" y="0px"
	 viewBox="-137 142 300 150" style="enable-background:new -137 142 300 150;" xml:space="preserve">
<style type="text/css">
	.st0{fill:#FFFFFF;}
</style>
<g>
	<g>
		<path class="st0" d="M-38.3,219.6c0,4.4-3.7,8-8.7,8s-8.7-3.6-8.7-8v-15.7h-2.6v15.8c0.1,5.7,4.5,10.3,11.3,10.3
			s11.2-4.6,11.2-10.3v-15.8h-2.6L-38.3,219.6L-38.3,219.6z"/>
		<path class="st0" d="M-10.1,203.9h-8.3v25.7h8.3c7.7,0,12.9-4.7,12.9-12.9C2.8,208.6-2.4,203.9-10.1,203.9z M-10.3,227.3h-5.5
			v-21.1h5.5c6.3,0,10.5,3.7,10.5,10.6C0.2,223.6-4,227.3-10.3,227.3z"/>
		<path class="st0" d="M63.8,227.7c-6.1,0-10.4-5-10.4-11.1c0-6.1,4.3-10.7,10.3-10.7c4.8,0,7.8,2.8,7.8,2.8l1.4-1.9
			c0,0-3.1-3.3-9.2-3.3c-7.3,0-12.9,5.7-12.9,13.1c0,7.5,5.4,13.4,13,13.4c6.3,0,9.8-4,9.8-4l-1.5-1.8
			C72.1,224.2,69,227.7,63.8,227.7z"/>
		<rect x="90.3" y="203.9" class="st0" width="2.5" height="25.7"/>
		<polygon class="st0" points="108.4,206.2 117.7,206.2 117.7,229.6 120.2,229.6 120.2,206.2 129.4,206.2 129.4,203.9 108.4,203.9 
					"/>
		<polygon class="st0" points="160.2,203.9 151.9,216.3 151.8,216.3 143.5,203.9 140.7,203.9 150.6,218.5 150.6,229.6 153.1,229.6 
			153.1,218.5 163,203.9 		"/>
		<path class="st0" d="M25.3,203.9l-10.5,25.7h2.8l2.8-6.8l11.6-2.4l3.7,9.2h2.8L28,203.9H25.3z M26.6,207.4L26.6,207.4L31,218
			l-9.5,1.9L26.6,207.4z"/>
	</g>
	<path class="st0" d="M-83.9,192.5l-3.5-2l-14.2,8.2v25.5c0,1.1-0.1,2.2-0.3,3.2s-0.5,2-0.9,3c-0.1,0.2-0.2,0.5-0.3,0.7
		c-0.4,0-0.9-0.1-1.3-0.2c-0.9-0.2-1.8-0.5-2.7-0.8c-0.8-0.4-1.6-0.8-2.4-1.3c-0.8-0.5-1.5-1.1-2.1-1.7c-0.6-0.6-1.2-1.3-1.7-2.1
		c-0.5-0.8-1-1.6-1.3-2.4c-0.4-0.9-0.6-1.7-0.8-2.7c-0.2-0.9-0.3-1.9-0.3-2.9v-24.4l-3.5-2l-17.8,10.1v23.4
		c0,10.8,8.7,19.5,19.5,19.5c3.6,0,6.9-1,9.8-2.6l14.4-8.3c5.7-3,9.5-8.9,9.5-15.7L-83.9,192.5z M-111.3,238.8c-1,0.4-2,0.7-3,0.9
		c-1,0.2-2.1,0.3-3.2,0.3s-2.2-0.1-3.2-0.3c-1-0.2-2-0.5-3-0.9c-0.9-0.4-1.9-0.9-2.7-1.5c-0.8-0.6-1.6-1.2-2.4-1.9
		c-0.7-0.7-1.4-1.5-1.9-2.4c-0.6-0.9-1.1-1.8-1.5-2.7c-0.4-1-0.7-2-0.9-3c-0.2-1-0.3-2.1-0.3-3.2v-21.4l14.2-8.2v22.4
		c0,8.5,6,15.6,14,17.3c-0.3,0.4-0.6,0.7-1,1.1c-0.7,0.7-1.5,1.4-2.4,1.9C-109.5,237.9-110.4,238.4-111.3,238.8z M-87.7,219.8
		c-0.2,0.9-0.5,1.8-0.8,2.7c-0.4,0.8-0.8,1.6-1.3,2.4c-0.5,0.8-1.1,1.5-1.7,2.1c-0.6,0.6-1.3,1.2-2.1,1.7s-1.6,1-2.4,1.3
		c-0.9,0.4-1.7,0.6-2.7,0.8c-0.2,0-0.4,0.1-0.6,0.1c0.8-2.1,1.2-4.4,1.2-6.8v-23.4l10.6-6.1V217C-87.4,217.9-87.5,218.9-87.7,219.8z
		"/>
</g>
</svg>
