<?xml version="1.0" encoding="utf-8"?>
<!-- Generator: Adobe Illustrator 19.1.0, SVG Export Plug-In . SVG Version: 6.00 Build 0)  -->
<!DOCTYPE svg PUBLIC "-//W3C//DTD SVG 1.1//EN" "http://www.w3.org/Graphics/SVG/1.1/DTD/svg11.dtd">
<svg version="1.1" id="Layer_1" xmlns="http://www.w3.org/2000/svg" xmlns:xlink="http://www.w3.org/1999/xlink" x="0px" y="0px"
	 viewBox="-155 430 300 150" style="enable-background:new -155 430 300 150;" xml:space="preserve">
<style type="text/css">
	.st0{fill:#212121;}
</style>
<g>
	<g>
		<path class="st0" d="M-56.2,508.5c0,4.4-3.7,8-8.7,8s-8.7-3.6-8.7-8v-15.7h-2.6v15.8c0.1,5.7,4.5,10.3,11.3,10.3
			s11.2-4.6,11.2-10.3v-15.8h-2.6L-56.2,508.5L-56.2,508.5z"/>
		<path class="st0" d="M-28,492.8h-8.3v25.7h8.3c7.7,0,12.9-4.7,12.9-12.9C-15.1,497.5-20.3,492.8-28,492.8z M-28.2,516.2h-5.5
			v-21.1h5.5c6.3,0,10.5,3.7,10.5,10.6C-17.7,512.5-21.9,516.2-28.2,516.2z"/>
		<path class="st0" d="M45.9,516.6c-6.1,0-10.4-5-10.4-11.1s4.3-10.7,10.3-10.7c4.8,0,7.8,2.8,7.8,2.8l1.4-1.9c0,0-3.1-3.3-9.2-3.3
			c-7.3,0-12.9,5.7-12.9,13.1c0,7.5,5.4,13.4,13,13.4c6.3,0,9.8-4,9.8-4l-1.5-1.8C54.2,513.1,51.1,516.6,45.9,516.6z"/>
		<rect x="72.4" y="492.8" class="st0" width="2.5" height="25.7"/>
		<polygon class="st0" points="90.5,495.1 99.8,495.1 99.8,518.5 102.3,518.5 102.3,495.1 111.5,495.1 111.5,492.8 90.5,492.8 		"/>
		<polygon class="st0" points="142.3,492.8 134,505.2 133.9,505.2 125.6,492.8 122.8,492.8 132.7,507.4 132.7,518.5 135.2,518.5 
			135.2,507.4 145.1,492.8 		"/>
		<path class="st0" d="M7.4,492.8l-10.5,25.7h2.8l2.8-6.8l11.6-2.4l3.7,9.2h2.8l-10.5-25.7H7.4z M8.7,496.3L8.7,496.3l4.4,10.6
			l-9.5,1.9L8.7,496.3z"/>
	</g>
	<path class="st0" d="M-101.8,481.4l-3.5-2l-14.2,8.2v25.5c0,1.1-0.1,2.2-0.3,3.2c-0.2,1-0.5,2-0.9,3c-0.1,0.2-0.2,0.5-0.3,0.7
		c-0.4,0-0.9-0.1-1.3-0.2c-0.9-0.2-1.8-0.5-2.7-0.8c-0.8-0.4-1.6-0.8-2.4-1.3s-1.5-1.1-2.1-1.7s-1.2-1.3-1.7-2.1s-1-1.6-1.3-2.4
		c-0.4-0.9-0.6-1.7-0.8-2.7c-0.2-0.9-0.3-1.9-0.3-2.9v-24.4l-3.5-2l-17.8,10.1V513c0,10.8,8.7,19.5,19.5,19.5c3.6,0,6.9-1,9.8-2.6
		l14.4-8.3c5.7-3,9.5-8.9,9.5-15.7L-101.8,481.4z M-129.2,527.7c-1,0.4-2,0.7-3,0.9s-2.1,0.3-3.2,0.3s-2.2-0.1-3.2-0.3s-2-0.5-3-0.9
		c-0.9-0.4-1.9-0.9-2.7-1.5s-1.6-1.2-2.4-1.9c-0.7-0.7-1.4-1.5-1.9-2.4c-0.6-0.9-1.1-1.8-1.5-2.7c-0.4-1-0.7-2-0.9-3
		s-0.3-2.1-0.3-3.2v-21.4l14.2-8.2v22.4c0,8.5,6,15.6,14,17.3c-0.3,0.4-0.6,0.7-1,1.1c-0.7,0.7-1.5,1.4-2.4,1.9
		C-127.4,526.8-128.3,527.3-129.2,527.7z M-105.6,508.7c-0.2,0.9-0.5,1.8-0.8,2.7c-0.4,0.8-0.8,1.6-1.3,2.4
		c-0.5,0.8-1.1,1.5-1.7,2.1s-1.3,1.2-2.1,1.7s-1.6,1-2.4,1.3c-0.9,0.4-1.7,0.6-2.7,0.8c-0.2,0-0.4,0.1-0.6,0.1
		c0.8-2.1,1.2-4.4,1.2-6.8v-23.4l10.6-6.1v22.4C-105.3,506.8-105.4,507.8-105.6,508.7z"/>
</g>
</svg>
