<?xml version="1.0" encoding="UTF-8" standalone="no"?>
<!-- Created with Inkscape (http://www.inkscape.org/) -->
<svg
   xmlns:dc="http://purl.org/dc/elements/1.1/"
   xmlns:cc="http://web.resource.org/cc/"
   xmlns:rdf="http://www.w3.org/1999/02/22-rdf-syntax-ns#"
   xmlns:svg="http://www.w3.org/2000/svg"
   xmlns="http://www.w3.org/2000/svg"
   xmlns:xlink="http://www.w3.org/1999/xlink"
   xmlns:sodipodi="http://inkscape.sourceforge.net/DTD/sodipodi-0.dtd"
   xmlns:inkscape="http://www.inkscape.org/namespaces/inkscape"
   version="1.0"
   width="800pt"
   height="206pt"
   id="svg1939"
   sodipodi:version="0.32"
   inkscape:version="0.43"
   sodipodi:docname="Wikinews-logo_Médias.svg"
   sodipodi:docbase="C:\Documents and Settings\Compaq_Propriétaire\Bureau\wikinews\images wikinews">
  <metadata
     id="metadata2278">
    <rdf:RDF>
      <cc:Work
         rdf:about="">
        <dc:format>image/svg+xml</dc:format>
        <dc:type
           rdf:resource="http://purl.org/dc/dcmitype/StillImage" />
      </cc:Work>
    </rdf:RDF>
  </metadata>
  <sodipodi:namedview
     inkscape:window-height="742"
     inkscape:window-width="970"
     inkscape:pageshadow="2"
     inkscape:pageopacity="0.0"
     guidetolerance="10.0"
     gridtolerance="10.0"
     objecttolerance="10.0"
     borderopacity="1.0"
     bordercolor="#666666"
     pagecolor="#ffffff"
     id="base"
     inkscape:zoom="0.65572206"
     inkscape:cx="656.72426"
     inkscape:cy="413.10539"
     inkscape:window-x="50"
     inkscape:window-y="-4"
     inkscape:current-layer="svg1939"
     fill="#ff0000" />
  <defs
     id="defs1941">
    <linearGradient
       id="linearGradient9171">
      <stop
         style="stop-color:#b0ddff;stop-opacity:1"
         offset="0"
         id="stop9173" />
      <stop
         style="stop-color:#cae8ff;stop-opacity:1"
         offset="0.5"
         id="stop9179" />
      <stop
         style="stop-color:#b0ddff;stop-opacity:1"
         offset="1"
         id="stop9175" />
    </linearGradient>
    <linearGradient
       x1="258.18005"
       y1="174.32866"
       x2="374.4324"
       y2="174.32866"
       id="linearGradient9177"
       xlink:href="#linearGradient9171"
       gradientUnits="userSpaceOnUse"
       gradientTransform="matrix(0,-1,1,0,128.1595,487.3718)" />
    <linearGradient
       id="linearGradient8262">
      <stop
         style="stop-color:#7dc1f3;stop-opacity:1"
         offset="0"
         id="stop8264" />
      <stop
         style="stop-color:#adf;stop-opacity:1"
         offset="0.5"
         id="stop8268" />
      <stop
         style="stop-color:#7dc1f3;stop-opacity:1"
         offset="1"
         id="stop8266" />
    </linearGradient>
    <linearGradient
       x1="239.05807"
       y1="175.02803"
       x2="393.35095"
       y2="175.02803"
       id="linearGradient7375"
       xlink:href="#linearGradient8262"
       gradientUnits="userSpaceOnUse"
       gradientTransform="matrix(0,-1,1,0,127.3584,487.9698)" />
    <linearGradient
       id="linearGradient5571">
      <stop
         style="stop-color:#4b9fdb;stop-opacity:1"
         offset="0"
         id="stop5573" />
      <stop
         style="stop-color:#7ec9fd;stop-opacity:1"
         offset="0.5"
         id="stop5579" />
      <stop
         style="stop-color:#4b9fdb;stop-opacity:1"
         offset="1"
         id="stop5575" />
    </linearGradient>
    <linearGradient
       x1="223.06319"
       y1="173.16895"
       x2="410.07242"
       y2="173.16895"
       id="linearGradient5577"
       xlink:href="#linearGradient5571"
       gradientUnits="userSpaceOnUse"
       gradientTransform="matrix(0,-1,1,0,129.5808,486.4738)" />
    <linearGradient
       id="linearGradient18934">
      <stop
         style="stop-color:#eee;stop-opacity:1"
         offset="0"
         id="stop18936" />
      <stop
         style="stop-color:#d5e1fd;stop-opacity:1"
         offset="1"
         id="stop18938" />
    </linearGradient>
    <radialGradient
       cx="318.60364"
       cy="175.1584"
       r="164.73401"
       fx="318.60364"
       fy="175.1584"
       id="radialGradient18940"
       xlink:href="#linearGradient18934"
       gradientUnits="userSpaceOnUse"
       gradientTransform="matrix(1,0,0,1.014494,-13.81818,-5.80099)" />
    <linearGradient
       id="linearGradient15386">
      <stop
         style="stop-color:#35a5ec;stop-opacity:1"
         offset="0"
         id="stop15388" />
      <stop
         style="stop-color:#2681da;stop-opacity:1"
         offset="1"
         id="stop15390" />
    </linearGradient>
    <radialGradient
       cx="373.08163"
       cy="123.36477"
       r="184.27052"
       fx="373.08163"
       fy="123.36477"
       id="radialGradient15392"
       xlink:href="#linearGradient15386"
       gradientUnits="userSpaceOnUse"
       gradientTransform="matrix(1,0,0,0.863204,5.521397e-14,16.87579)" />
    <radialGradient
       cx="373.08163"
       cy="123.36477"
       r="184.27052"
       fx="373.08163"
       fy="123.36477"
       id="radialGradient1982"
       xlink:href="#linearGradient15386"
       gradientUnits="userSpaceOnUse"
       gradientTransform="matrix(1,0,0,0.863204,2.325914e-14,16.87579)" />
  </defs>
  <g
     id="layer1"
     transform="matrix(0.729,0,0,0.729,2.672339,4.097758)">
    <path
       d="M 13.92813,225.2724 C 10.24285,220.25206 6.1536404,211.33959 4.0236304,203.68554 C -2.7765296,179.24947 -0.74162961,143.64772 8.4992303,125.38236 C 11.11538,120.21132 14.29481,115.2433 15.78192,114.00279 C 16.9557,113.02366 34.17746,112.48967 34.17746,113.4324 C 34.17746,113.6658 33.23724,115.7122 32.08807,117.97997 C 23.4099,135.10551 19.01597,158.54843 20.58447,179.35514 C 21.87266,196.44335 25.86455,211.9391 32.19855,224.43864 C 33.28696,226.5865 34.17746,228.53478 34.17746,228.76818 C 34.17746,229.00157 30.26883,229.19252 25.49161,229.19252 L 16.80576,229.19252 L 13.92813,225.2724 z M 571.33162,228.59409 C 571.33162,228.26495 573.08682,223.85396 575.23212,218.79189 C 582.54212,201.54275 585.39242,185.63252 584.52662,166.91134 C 583.49542,144.61234 580.29592,132.26855 570.70982,113.6049 C 570.54122,113.27664 574.47772,113.00806 579.45752,113.00806 L 588.51182,113.00806 L 591.36772,116.78803 C 597.12722,124.41132 601.11562,135.00291 603.57902,149.21623 C 605.22952,158.73936 605.46542,179.53812 604.03032,189.00543 C 601.66002,204.64263 595.83372,220.31094 590.14722,226.34042 L 587.45732,229.19252 L 579.39452,229.19252 C 574.95992,229.19252 571.33162,228.92323 571.33162,228.59409 z "
       style="fill:url(#linearGradient9177);fill-opacity:1"
       id="path6685" />
    <path
       d="M 63.89303,248.54379 C 60.75998,248.22488 60.3695,247.88042 56.56775,242.0818 C 51.58323,234.47917 48.5847,227.91277 45.4127,217.65365 C 36.67281,189.3864 37.00097,150.54946 46.21286,122.95708 C 49.02648,114.52945 55.45346,101.90924 59.0745,97.70158 L 61.632,94.72974 L 72.22246,94.63107 C 78.04721,94.57681 82.99521,94.71468 83.218,94.93748 C 83.44078,95.16027 82.7527,97.07915 81.68892,99.20166 C 76.56583,109.42349 72.02762,126.62818 69.55189,145.21396 C 68.13225,155.87163 67.89474,185.95568 69.14649,196.56538 C 70.65596,209.35941 73.84122,223.47718 78.01078,235.85386 C 80.20349,242.36253 81.77263,247.91313 81.49778,248.18852 C 80.90754,248.77993 68.6442,249.02741 63.89303,248.54379 z M 524.18142,248.53856 C 522.34952,248.05983 522.38282,247.82056 525.20392,241.19113 C 528.75002,232.85788 532.90282,216.92661 534.85302,204.17468 C 537.22082,188.69268 537.44222,155.19305 535.26362,142.05417 C 532.67682,126.45343 527.74592,108.63986 523.87162,100.8988 C 520.70462,94.57091 520.50652,94.70502 533.01872,94.70502 L 544.04442,94.70502 L 547.24242,99.28078 C 554.52492,109.70047 560.39642,124.7837 563.42852,140.8605 C 565.86202,153.76344 566.46772,181.12889 564.61422,194.4305 C 561.88952,213.98497 556.46192,230.1648 548.75482,241.7084 C 544.70332,247.77648 544.55052,247.90342 540.67012,248.42057 C 536.19522,249.01697 526.28352,249.0879 524.18142,248.53856 z "
       style="fill:url(#linearGradient7375);fill-opacity:1"
       id="path6683" />
    <path
       d="M 493.16392,79.11398 C 504.56742,92.1019 512.65102,113.29461 516.56412,140.4626 C 517.94432,150.04512 517.93122,184.06497 516.54312,194.9738 C 515.03062,206.86096 512.02462,219.93651 508.36342,230.55439 C 504.64402,241.34105 501.92542,246.97838 495.87642,256.44812 L 491.42852,263.41123 L 475.60392,263.41123 C 466.90042,263.41123 459.90082,263.14265 460.04922,262.81439 C 460.19762,262.48613 461.26232,260.42704 462.41512,258.23863 C 472.12272,239.81102 480.52202,212.12519 483.02962,190.289 C 484.40122,178.34555 483.59832,151.71474 481.52172,140.26963 C 478.16012,121.74322 473.30092,106.02384 465.55532,88.61946 L 460.11812,76.40199 L 475.45042,76.40199 L 490.78272,76.40199 L 493.16392,79.11398 z M 145.57734,77.21763 C 145.57734,77.66624 144.27411,80.62059 142.68125,83.78285 C 133.8738,101.26815 126.42266,125.12735 123.68992,144.59479 C 121.97147,156.83664 121.92732,186.85344 123.6129,196.96326 C 126.89318,216.63787 132.31666,234.12197 140.70227,252.05559 C 143.38356,257.78985 145.57734,262.69071 145.57734,262.94638 C 145.57734,263.20204 138.79737,263.41123 130.51073,263.41123 L 115.44411,263.41123 L 112.57033,259.90415 C 90.32679,232.75884 81.27584,167.78887 93.15944,120.568 C 97.558713,103.08699 104.87906,87.75952 112.82772,79.38618 L 115.66056,76.40199 L 130.61895,76.40199 C 140.30357,76.40199 145.57734,76.68955 145.57734,77.21763 z "
       style="fill:url(#linearGradient5577);fill-opacity:1;fill-rule:evenodd"
       id="path6681" />
    <path
       d="M 203.15681,40.3766 C 274.68396,-16.50787 378.10972,-3.8741098 434.28242,68.60928 C 490.45522,141.09267 478.14802,246.03505 406.77942,303.12421 C 335.41092,360.21331 231.95044,347.87591 175.57615,275.55375 C 119.20185,203.23156 131.21693,98.25435 202.42627,40.96098"
       style="fill:url(#radialGradient18940);fill-opacity:1;fill-rule:evenodd;stroke:none;stroke-width:12;stroke-linecap:round;stroke-linejoin:round;marker-start:none;stroke-miterlimit:4;stroke-dasharray:none;stroke-opacity:1"
       id="path12347" />
    <path
       d="M 203.15681,40.3766 C 274.68396,-16.50787 378.10972,-3.8741098 434.28242,68.60928 C 490.45522,141.09267 478.14802,246.03505 406.77942,303.12421 C 335.41092,360.21331 231.95044,347.87591 175.57615,275.55375 C 119.20185,203.23156 131.21693,98.25435 202.42627,40.96098"
       style="fill:none;fill-opacity:1;fill-rule:evenodd;stroke:#bbd2e6;stroke-width:9.54940796;stroke-linecap:round;stroke-linejoin:round;marker-start:none;stroke-miterlimit:4;stroke-dasharray:none;stroke-opacity:1"
       id="path8589" />
    <path
       d="M 241.26168,93.78015 C 284.17793,59.6495 346.23331,67.22974 379.93692,110.71974 C 413.64062,154.20974 406.25622,217.17511 363.43512,251.42857 C 320.61408,285.68203 258.53784,278.27959 224.7133,234.88632 C 190.88874,191.49304 198.09779,128.50677 240.82335,94.13077"
       style="fill:none;fill-opacity:1;fill-rule:evenodd;stroke:#bbd2e6;stroke-width:9.54940033;stroke-linecap:round;stroke-linejoin:round;marker-start:none;stroke-miterlimit:4;stroke-dasharray:none;stroke-opacity:1"
       id="path8771" />
    <path
       d="M 187.80523,55.71162 L 422.56152,290.86579"
       style="fill:none;fill-opacity:1;fill-rule:evenodd;stroke:#bbd2e6;stroke-width:9.54940796;stroke-linecap:butt;stroke-linejoin:miter;stroke-miterlimit:4;stroke-dasharray:none;stroke-opacity:1"
       id="path8781" />
    <path
       d="M 424.15312,54.51794 L 187.80523,289.67211"
       style="fill:none;fill-opacity:1;fill-rule:evenodd;stroke:#bbd2e6;stroke-width:9.54940796;stroke-linecap:butt;stroke-linejoin:miter;stroke-miterlimit:4;stroke-dasharray:none;stroke-opacity:1"
       id="path9668" />
    <path
       d="M 303.9897,4.7814402 L 304.56389,340.60231"
       style="fill:none;fill-opacity:1;fill-rule:evenodd;stroke:#bbd2e6;stroke-width:9.54940796;stroke-linecap:butt;stroke-linejoin:miter;stroke-miterlimit:4;stroke-dasharray:none;stroke-opacity:1"
       id="path10559" />
    <path
       d="M 144.03711,171.1003 L 471.10432,173.48765"
       style="fill:none;fill-opacity:1;fill-rule:evenodd;stroke:#bbd2e6;stroke-width:9.54940796;stroke-linecap:butt;stroke-linejoin:miter;stroke-miterlimit:4;stroke-dasharray:none;stroke-opacity:1"
       id="path10561" />
    <g
       transform="matrix(0.795784,0,0,0.795784,2.202877e-4,76.40201)"
       style="fill:url(#radialGradient15392);fill-opacity:1;display:inline"
       id="layer3">
      <path
         d="M 358.70162,282.10402 C 354.57951,281.77029 351.20162,279.61008 351.20162,277.30767 C 351.20162,276.58705 349.80948,274.4119 348.10798,272.474 C 346.09029,270.17597 344.81848,267.46848 344.45118,264.6892 C 344.14143,262.34546 342.88561,258.83174 341.66047,256.88094 C 339.64351,253.66933 339.56619,253.07967 340.84255,250.64364 C 341.61785,249.16394 343.33199,247.68226 344.65177,247.35102 C 346.72706,246.83015 347.00485,246.25405 346.70717,243.08831 C 346.26575,238.39399 344.83435,234.69787 342.8058,233.01432 C 340.64965,231.22487 340.78625,229.29008 343.25591,226.63921 L 345.31019,224.4342 L 343.14512,222.68103 C 341.95433,221.71679 340.38523,220.92786 339.65822,220.92786 C 338.93122,220.92786 338.04918,220.02292 337.69814,218.91689 C 337.3471,217.81086 335.85427,216.28248 334.38075,215.52049 C 331.57587,214.07003 331.07892,213.92786 328.81383,213.92786 C 328.05055,213.92786 325.21972,212.46536 322.52311,210.67786 C 319.82649,208.89036 316.7385,206.93622 315.66089,206.33533 C 313.19548,204.96056 309.29913,197.24082 309.39853,193.92786 C 309.43978,192.55286 308.98049,190.20876 308.37787,188.71874 C 307.40964,186.32471 307.58397,185.77227 309.87677,183.96874 C 311.30378,182.84626 312.84909,181.92786 313.3108,181.92786 C 313.7725,181.92786 314.80959,180.65286 315.61543,179.09453 C 317.25278,175.92824 317.11727,175.97207 326.41514,175.60163 C 330.10758,175.45452 333.44508,175.01773 333.83181,174.63101 C 334.21854,174.24428 336.2334,173.92786 338.30927,173.92786 C 342.0833,173.92786 344.1335,172.62183 342.21793,171.43794 C 340.58809,170.43064 341.03111,168.43737 343.5316,165.52737 C 345.63681,163.07738 346.11915,162.93316 348.5316,164.03235 C 350.00011,164.70145 351.20162,165.68176 351.20162,166.21082 C 351.20162,166.73988 351.90555,166.58854 352.76591,165.87451 C 353.71246,165.08894 354.11455,163.71707 353.78411,162.40052 C 353.05191,159.4832 353.88625,158.87015 357.05444,159.99753 C 359.59032,160.89992 359.61753,160.87387 357.70162,159.37798 C 356.60162,158.51913 355.82136,157.22088 355.96771,156.49299 C 356.11406,155.76509 355.30066,154.92552 354.16016,154.62727 C 352.36767,154.15852 352.25417,153.81658 353.32301,152.1051 C 354.14722,150.78533 355.33336,150.26553 356.88055,150.54608 C 358.47499,150.83521 359.20162,150.49126 359.20162,149.44742 C 359.20162,148.59591 360.07849,147.92786 361.19618,147.92786 C 362.94154,147.92786 363.11539,148.39637 362.58767,151.67786 C 361.52034,158.31488 361.46021,159.92786 362.28012,159.92786 C 362.72202,159.92786 363.34461,159.50552 363.66363,158.98933 C 363.98266,158.47313 365.13421,158.2223 366.22265,158.43191 C 367.42469,158.6634 368.20162,158.26985 368.20162,157.42946 C 368.20162,155.38826 370.2898,154.45782 371.29811,156.04974 C 372.00206,157.16114 372.17396,157.11174 372.18631,155.79449 C 372.19473,154.89614 371.24317,153.91048 370.07174,153.60415 C 368.59701,153.2185 368.13561,152.54226 368.57174,151.40573 C 368.91817,150.50293 369.20162,149.12609 369.20162,148.34607 C 369.20162,147.56606 370.09343,146.92786 371.18343,146.92786 C 372.27342,146.92786 374.78861,145.35135 376.77274,143.4245 C 381.79238,138.54976 384.37474,138.11488 389.22844,141.32691 C 392.47757,143.47708 393.20162,143.6608 393.20162,142.33506 C 393.20162,141.33018 393.75249,140.92527 394.65069,141.26994 C 395.66821,141.6604 395.91541,141.34559 395.48075,140.21289 C 395.08635,139.18508 395.26117,138.84663 395.96257,139.28012 C 396.56802,139.65431 398.25186,138.85903 399.70444,137.51283 C 401.92248,135.45722 402.16816,134.73386 401.23837,132.99652 C 400.21899,131.0918 400.37047,130.54054 401.73809,131.17786 C 403.0632,131.79537 403.74926,128.56462 403.22075,124.19576 C 402.79759,120.69776 402.25213,119.51664 401.17279,119.76119 C 400.36365,119.94453 399.27835,120.16953 398.76101,120.26119 C 398.24367,120.35286 397.63237,119.52786 397.40256,118.42786 C 397.17275,117.32786 397.2924,116.72423 397.66845,117.08647 C 398.04449,117.4487 399.78079,117.30681 401.52689,116.77115 C 403.27299,116.2355 405.15162,115.70147 405.70162,115.58443 C 408.05923,115.08271 408.90268,113.81486 408.45093,111.45173 C 408.0992,109.61177 408.39801,108.92786 409.55366,108.92786 C 410.55188,108.92786 410.92571,108.37243 410.56325,107.42786 C 409.90706,105.71787 406.20162,105.36389 406.20162,107.01119 C 406.20162,109.4253 403.82929,107.10219 403.50442,104.36996 C 403.25382,102.26232 403.42222,101.83334 404.09814,102.85749 C 404.61709,103.64378 405.6831,104.38125 406.46705,104.49631 C 407.60307,104.66304 407.74132,103.87924 407.14808,100.63509 C 406.7387,98.396362 406.59217,96.073672 406.82246,95.473562 C 407.05275,94.873442 405.87976,93.578232 404.21583,92.595322 C 400.51255,90.407752 396.55153,82.958632 398.45045,81.752912 C 400.28791,80.586222 400.91676,80.743152 401.60646,82.540482 C 402.12796,83.899482 402.47693,83.944262 403.82532,82.825202 C 405.55375,81.390732 412.10337,81.513832 413.65162,83.009892 C 414.90234,84.218442 418.20162,84.191822 418.20162,82.973172 C 418.20162,81.821112 424.00823,80.622712 427.32063,81.091142 L 429.70162,81.427862 L 426.93902,84.235922 C 424.79439,86.415832 423.5092,86.938822 421.19367,86.573892 C 419.55315,86.315342 417.95273,86.521552 417.63717,87.032142 C 417.32161,87.542732 416.53202,87.641762 415.88252,87.252212 C 415.23303,86.862662 415.34518,87.336612 416.13176,88.305422 C 416.92494,89.282362 418.37146,89.855202 419.37955,89.591582 C 420.69819,89.246752 421.64736,90.064942 422.83701,92.571942 C 423.82421,94.652292 425.96476,96.786702 428.21541,97.934892 C 432.51698,100.12939 433.45642,99.728232 432.13778,96.259942 C 430.91778,93.051112 430.79775,93.325332 433.95162,92.116232 C 440.47853,89.614002 441.44905,89.572912 440.73295,91.829142 C 440.34039,93.065992 440.50518,93.927862 441.13423,93.927862 C 443.1582,93.927862 443.71103,94.115702 446.45162,95.734612 C 447.96412,96.628072 449.20162,98.129092 449.20162,99.070232 C 449.20162,100.01136 450.55162,101.45485 452.20162,102.27797 C 453.85162,103.1011 455.20162,103.38939 455.20162,102.9186 C 455.20162,101.41245 459.24544,100.71934 460.74961,101.96769 C 462.71624,103.59985 462.65123,106.31437 460.66377,105.55171 C 459.7887,105.21591 458.88062,105.60079 458.55678,106.44472 C 458.24375,107.26045 457.39088,107.92786 456.66151,107.92786 C 455.81691,107.92786 455.36847,109.09157 455.42651,111.13271 C 455.51587,114.27565 455.54563,114.29539 456.96706,112.15461 L 458.41649,109.97165 L 460.17876,112.14796 L 461.94103,114.32427 L 462.60368,112.23646 C 463.59932,109.09947 467.57838,108.81984 471.66887,111.5994 C 475.85188,114.44182 478.01527,118.28917 478.84837,124.3673 C 479.18564,126.82795 479.89497,128.7482 480.42466,128.63453 C 481.70132,128.36057 483.82315,131.63966 482.94042,132.5224 C 482.56066,132.90215 481.63517,132.70264 480.88378,132.07904 C 478.56029,130.15072 477.282,132.92614 479.14072,135.86356 C 479.89362,137.0534 480.31911,137.07524 481.6254,135.99111 C 482.49232,135.27163 483.20162,134.96307 483.20162,135.30542 C 483.20162,135.64776 484.0669,135.06258 485.12446,134.00502 C 488.7259,130.40358 491.85057,132.67969 493.59862,140.17786 C 494.08224,142.25233 493.86657,142.92786 492.72067,142.92786 C 491.88519,142.92786 491.20162,143.37786 491.20162,143.92786 C 491.20162,144.47786 490.62663,144.92786 489.92386,144.92786 C 489.22109,144.92786 487.85864,145.84755 486.89619,146.97161 C 485.36311,148.76211 485.32694,149.19604 486.60426,150.47336 C 488.27773,152.14683 492.72214,150.96584 494.6445,148.33687 C 495.70356,146.88852 500.16971,145.66024 504.95162,145.50221 C 506.18912,145.46132 507.20162,144.85124 507.20162,144.14648 C 507.20162,143.44171 507.84821,142.61697 508.63848,142.31372 C 509.46553,141.99635 509.81781,141.09125 509.46854,140.18106 C 509.06071,139.11828 509.25407,138.84224 510.0582,139.33922 C 510.71625,139.74592 511.13023,140.78556 510.97814,141.64952 C 510.82605,142.51349 511.24507,143.41071 511.90928,143.64334 C 513.19763,144.09456 516.20162,137.92374 516.20162,134.82597 C 516.20162,132.25869 519.22604,124.92786 520.2852,124.92786 C 521.30525,124.92786 520.63748,129.44107 518.58368,136.42786 C 516.30697,144.17296 515.04829,146.95113 514.08556,146.35613 C 513.59939,146.05566 513.20162,146.42311 513.20162,147.17268 C 513.20162,149.86898 505.84717,155.66358 500.20162,157.41542 C 498.10765,158.0652 494.20162,160.38665 494.20162,160.98139 C 494.20162,161.38426 493.52662,161.9729 492.70162,162.28949 C 489.91371,163.35931 491.11648,159.74431 494.66055,156.40183 C 497.78235,153.45759 497.92854,153.08971 496.16055,152.62737 C 495.08314,152.34562 494.20162,152.59797 494.20162,153.18815 C 494.20162,153.77832 493.90552,153.9651 493.54363,153.6032 C 493.18173,153.24131 492.29915,153.43195 491.58233,154.02686 C 490.64161,154.80759 489.22499,154.75111 486.49032,153.82383 C 480.27754,151.71718 478.20162,151.89235 478.20162,154.52327 C 478.20162,157.00958 476.60816,158.64747 475.99088,156.79565 C 475.70916,155.95049 474.68851,155.98395 472.09024,156.9235 C 467.56376,158.56029 466.0953,161.91066 465.68425,171.53904 C 465.31274,180.24099 466.64959,182.55094 472.14769,182.70726 C 476.02525,182.81751 476.65756,183.29733 475.81584,185.4908 C 475.36411,186.668 474.4816,186.96396 472.73231,186.52492 C 470.89354,186.06342 470.00784,186.42142 469.18511,187.95872 C 468.26,189.68729 467.45341,189.91286 464.02567,189.40162 C 461.79107,189.06833 459.22901,188.43033 458.33219,187.98383 C 453.30184,185.4794 449.20162,184.07098 449.20162,184.84751 C 449.20162,185.33553 446.83912,185.6567 443.95162,185.56123 C 439.64789,185.41894 437.9094,185.91362 434.30627,188.3058 C 431.86336,189.92769 428.65058,191.18812 427.07364,191.14328 C 425.51314,191.09892 423.97699,191.48229 423.65998,191.99524 C 422.88779,193.24466 416.48193,193.19043 415.70162,191.92786 C 414.90594,190.64042 413.20162,190.63127 413.20162,191.91444 C 413.20162,192.45706 414.85133,193.59031 416.86764,194.43278 C 420.27936,195.85829 420.67823,195.83374 422.61764,194.07895 C 424.16386,192.67992 425.69221,192.31902 428.54044,192.68038 C 432.35221,193.16398 432.37452,193.19299 431.70583,196.79764 C 431.33544,198.79426 430.28297,201.28905 429.36701,202.34161 C 424.80119,207.58834 420.50721,211.37362 415.91783,214.1975 C 409.53021,218.12784 411.35122,218.92162 418.86446,215.48194 C 423.13618,213.52628 424.74153,213.18342 425.31115,214.10508 C 425.72833,214.78009 425.91995,215.57885 425.73697,215.88011 C 425.55399,216.18137 424.90004,218.30806 424.28373,220.60608 C 423.43735,223.76202 421.10107,226.86976 414.73501,233.30789 L 406.30683,241.83148 L 407.82747,244.87967 C 408.66382,246.55618 409.74399,247.92786 410.22786,247.92786 C 411.17934,247.92786 413.37305,254.84146 412.74435,255.85872 C 412.53409,256.19892 409.42321,257.99981 405.83128,259.86069 C 400.27964,262.73683 399.44301,263.51039 400.25106,265.02024 C 400.77387,265.99711 401.20162,267.2644 401.20162,267.83644 C 401.20162,269.13891 395.67908,272.07199 394.8284,271.22131 C 394.48367,270.87658 394.20162,271.54409 394.20162,272.70466 C 394.20162,273.98877 393.02726,275.5085 391.20162,276.58693 C 389.55162,277.56161 388.20162,278.78705 388.20162,279.31013 C 388.20162,279.83322 387.90004,279.95961 387.53145,279.59102 C 387.16285,279.22242 385.70035,279.70992 384.28145,280.67435 C 382.2699,282.0416 379.60899,282.42786 372.20162,282.42786 C 366.97662,282.42786 360.90162,282.28213 358.70162,282.10402 z M 397.67556,252.79255 C 397.1153,249.88334 396.20162,249.1407 396.20162,251.59453 C 396.20162,253.34238 396.96705,254.92786 397.81087,254.92786 C 397.96262,254.92786 397.90173,253.96697 397.67556,252.79255 z M 384.80579,242.19869 C 384.4735,241.8664 384.23715,242.45703 384.28057,243.51119 C 384.32855,244.67614 384.56551,244.91309 384.88473,244.11536 C 385.1736,243.39348 385.13808,242.53098 384.80579,242.19869 z M 393.70162,237.92786 C 394.04154,237.37786 393.3931,236.92786 392.26064,236.92786 C 391.12818,236.92786 390.20162,237.37786 390.20162,237.92786 C 390.20162,239.22622 392.89919,239.22622 393.70162,237.92786 z M 401.23087,205.77636 C 392.74595,197.43835 389.66208,195.93362 395.08107,202.77565 C 396.79737,204.94266 398.20162,207.1134 398.20162,207.59952 C 398.20162,208.53227 402.34725,212.39324 403.20162,212.2562 C 403.47662,212.21209 404.81586,213.05246 406.1777,214.12369 C 407.76376,215.37128 408.78919,215.66515 409.03049,214.94125 C 409.23768,214.31968 405.72785,210.19548 401.23087,205.77636 z M 389.44601,192.70202 C 391.65261,193.27906 393.16342,191.49174 393.18631,188.27716 C 393.20018,186.32857 392.77558,186.16626 388.6682,186.54996 C 384.47935,186.94128 384.0043,186.74419 382.4182,183.95699 C 380.70762,180.95104 377.48651,179.62192 378.53519,182.35475 C 378.83634,183.13953 378.47723,184.28416 377.73717,184.89835 C 376.6835,185.77282 376.04561,185.3215 374.79662,182.81783 C 373.91937,181.05934 373.1874,179.12722 373.17002,178.52422 C 373.13707,177.38094 368.68205,171.92786 367.78097,171.92786 C 366.89629,171.92786 368.51604,175.33676 370.32765,177.28755 C 372.18472,179.28729 371.81502,181.92786 369.67796,181.92786 C 368.95764,181.92786 368.17897,182.49036 367.94757,183.17786 C 367.61958,184.15237 367.16043,184.12538 365.86424,183.05542 C 363.56888,181.16066 363.76569,179.62419 366.14093,180.89538 C 368.98172,182.41572 369.89061,180.21841 367.3861,177.8851 C 366.27057,176.84583 365.06739,175.08029 364.71236,173.96169 C 363.74667,170.91909 355.31427,170.61095 352.1202,173.50154 C 350.73435,174.75572 349.34834,174.99391 346.49161,174.46884 C 343.65472,173.94741 342.9823,174.05991 343.81776,174.91619 C 344.43164,175.54536 346.45664,176.30593 348.31776,176.60633 C 350.17888,176.90674 352.15162,177.23903 352.70162,177.34476 C 353.25162,177.45049 355.27662,178.36967 357.20162,179.38739 C 359.12662,180.4051 360.92662,181.28055 361.20162,181.33282 C 361.47662,181.38509 361.63527,182.66536 361.55417,184.17786 C 361.47308,185.69036 361.81058,186.92786 362.30417,186.92786 C 362.79777,186.92786 364.06756,187.7938 365.12593,188.85217 C 368.54735,192.27359 370.83881,193.06995 372.27676,191.33732 C 373.60088,189.74185 373.94262,189.7797 380.70162,192.27043 C 382.90162,193.08114 385.32803,193.39456 386.09365,192.96692 C 386.85927,192.53927 388.36783,192.42007 389.44601,192.70202 z M 360.23706,178.3003 C 360.25654,177.82046 360.9156,176.30286 361.70162,174.92786 C 363.0478,172.57297 363.13281,172.55135 363.16618,174.55542 C 363.18567,175.72557 362.52662,177.24317 361.70162,177.92786 C 360.87662,178.61255 360.21757,178.78015 360.23706,178.3003 z M 414.17938,179.66666 C 414.14803,177.91967 411.19137,174.48778 407.95162,172.43787 C 404.71396,170.38928 404.23921,171.96545 407.20162,174.92786 C 408.30162,176.02786 409.20162,177.72971 409.20162,178.70975 C 409.20162,179.8886 410.0477,180.56167 411.70162,180.69855 C 413.1434,180.81788 414.19221,180.38109 414.17938,179.66666 z M 388.79195,178.93753 C 389.37837,178.35111 390.98937,178.27365 392.74195,178.74762 C 395.84989,179.58813 399.20603,179.25368 399.1953,178.10454 C 399.19182,177.73236 397.81267,176.64456 396.13051,175.68719 C 394.27464,174.63095 393.35488,173.4889 393.79135,172.78268 C 394.24263,172.05249 394.07439,171.88846 393.33982,172.34245 C 392.69587,172.74043 392.39875,173.43781 392.67956,173.89217 C 393.66735,175.49044 390.03436,175.90346 388.49841,174.36751 C 387.09227,172.96137 386.77961,173.08102 385.22443,175.62038 C 384.02983,177.57099 383.84026,178.65209 384.60334,179.16255 C 386.13032,180.18401 387.62581,180.10367 388.79195,178.93753 z M 378.20162,158.45218 C 378.20162,157.70547 378.6932,156.93067 379.29403,156.73039 C 380.44418,156.34701 381.20238,148.92786 380.0914,148.92786 C 378.9554,148.92786 377.19489,151.5878 377.87847,152.27138 C 378.95548,153.34839 376.04996,157.83882 373.79151,158.58772 C 371.79389,159.25013 371.812,159.31013 374.20162,159.94677 C 377.13038,160.72704 378.20162,160.32677 378.20162,158.45218 z M 383.20162,146.86884 C 383.20162,146.28638 382.75162,146.08794 382.20162,146.42786 C 380.92024,147.2198 380.92024,147.92786 382.20162,147.92786 C 382.75162,147.92786 383.20162,147.4513 383.20162,146.86884 z M 392.20162,146.4375 C 392.20162,146.28549 391.33529,145.93457 390.27644,145.65768 C 388.96212,145.31398 388.51243,145.57424 388.8592,146.4779 C 389.26505,147.53554 392.20162,147.50005 392.20162,146.4375 z M 438.38912,93.244752 C 437.66724,92.955882 436.80474,92.991402 436.47245,93.323692 C 436.14016,93.655992 436.73079,93.892332 437.78495,93.848912 C 438.9499,93.800932 439.18685,93.563972 438.38912,93.244752 z M 422.69794,264.9238 C 421.21783,263.28829 421.08789,262.47289 421.99138,260.48994 C 422.7806,258.7578 422.78805,257.95667 422.01735,257.69977 C 420.2573,257.11309 422.0989,253.09524 424.47327,252.34164 C 425.66641,251.96295 428.09542,250.02744 429.87107,248.04049 C 432.78272,244.78237 433.25221,244.57903 434.65535,245.96835 C 435.9805,247.28044 436.04572,248.39246 435.09528,253.46835 C 433.14817,263.86694 432.82856,264.51366 428.97222,265.85798 C 424.92271,267.26965 424.80506,267.25213 422.69794,264.9238 z M 505.20162,260.92786 C 505.20162,260.37786 505.65162,259.92786 506.20162,259.92786 C 506.75162,259.92786 507.20162,260.37786 507.20162,260.92786 C 507.20162,261.47786 506.75162,261.92786 506.20162,261.92786 C 505.65162,261.92786 505.20162,261.47786 505.20162,260.92786 z M 216.20162,224.92786 C 216.20162,223.64648 216.90968,223.64648 217.70162,224.92786 C 218.04154,225.47786 217.8431,225.92786 217.26064,225.92786 C 216.67818,225.92786 216.20162,225.47786 216.20162,224.92786 z M 204.86829,193.26119 C 204.50162,192.89453 204.23014,191.65703 204.26501,190.51119 C 204.32329,188.5956 204.40553,188.62071 205.28649,190.82304 C 206.2658,193.27126 206.06266,194.45557 204.86829,193.26119 z M 324.76591,171.22099 C 324.22323,169.79579 324.33809,169.68093 325.32571,170.66119 C 326.00913,171.33953 326.31638,172.14643 326.00849,172.45432 C 325.7006,172.76221 325.14144,172.20721 324.76591,171.22099 z M 258.37883,167.23566 C 254.95602,164.6225 253.66849,164.14282 252.19457,164.93163 C 251.17076,165.47956 249.39458,165.92786 248.24749,165.92786 C 245.24566,165.92786 238.20992,161.21343 238.15519,159.16532 C 238.06945,155.95673 231.75376,145.46421 229.68343,145.09081 C 225.1041,144.26491 216.80484,133.45779 215.69212,126.8716 C 215.32487,124.69787 214.63403,123.16061 214.15694,123.45548 C 212.56105,124.44179 210.0792,119.14187 209.49746,113.50532 C 209.18085,110.43772 208.58725,107.92786 208.17835,107.92786 C 206.89457,107.92786 206.3699,104.11561 207.16717,100.58062 C 207.83047,97.639602 207.69842,97.246692 206.18013,97.643732 C 204.09206,98.189772 203.05307,96.729012 202.13879,91.961832 L 201.46102,88.427862 L 200.70216,91.698672 C 199.69995,96.018332 198.20162,96.825592 198.20162,93.045892 C 198.20162,91.395892 197.75162,89.767782 197.20162,89.427862 C 196.65162,89.087942 196.20162,87.626532 196.20162,86.180282 C 196.20162,83.565402 196.19122,83.561902 194.33688,85.552302 C 193.31128,86.653152 191.94545,88.538012 191.3017,89.740862 C 190.65795,90.943712 189.76594,91.927862 189.31945,91.927862 C 188.434,91.927862 188.78272,83.422232 189.76931,80.955342 C 190.10529,80.115232 190.58371,78.360782 190.83245,77.056582 C 191.53019,73.398242 194.80333,67.585612 197.06091,65.995712 C 198.17938,65.208022 198.87023,64.200672 198.59612,63.757162 C 198.32201,63.313642 198.79612,63.218762 199.64968,63.546302 C 200.50325,63.873852 201.20162,63.643692 201.20162,63.034852 C 201.20162,62.426002 201.87662,61.927862 202.70162,61.927862 C 203.6676,61.927862 204.20707,62.906892 204.21693,64.677862 C 204.22894,66.834012 204.44488,67.103942 205.21693,65.927862 C 206.09221,64.594532 206.31418,64.594532 207.21462,65.927862 C 207.77178,66.752862 208.04323,68.198812 207.81786,69.141092 C 207.59249,70.083372 208.06493,71.399452 208.86774,72.065722 C 210.10505,73.092612 210.22513,72.869732 209.65609,70.602492 C 208.86668,67.457202 210.18628,67.072392 211.96955,69.927862 C 212.65651,71.027862 214.03936,71.927862 215.04255,71.927862 C 216.04574,71.927862 217.95443,73.580922 219.28408,75.601332 C 220.61373,77.621752 222.48652,79.381552 223.44584,79.512002 C 224.40516,79.642462 227.44942,81.139392 230.21086,82.838532 C 238.19429,87.750782 240.67784,86.985322 245.06306,78.260912 C 246.70393,74.996402 248.34003,73.534552 252.61765,71.510912 C 255.62072,70.090232 258.53811,68.927862 259.10074,68.927862 C 259.66337,68.927862 261.00031,67.986942 262.07172,66.836922 L 264.01973,64.745972 L 266.11068,66.836922 C 267.2607,67.986942 268.43383,68.815362 268.71763,68.677862 C 269.57891,68.260582 273.18798,74.306062 273.19503,76.177862 C 273.19865,77.140362 273.87662,77.984112 274.70162,78.052862 C 275.52662,78.121612 276.76412,78.244822 277.45162,78.326672 C 279.32614,78.549832 281.27302,76.277512 280.63402,74.612312 C 279.97037,72.882842 287.13982,65.016472 288.83373,65.615542 C 289.45639,65.835762 291.70639,64.309092 293.83373,62.222952 C 295.96107,60.136802 299.05162,57.750262 300.70162,56.919522 C 302.35162,56.088772 303.70162,54.931162 303.70162,54.347042 C 303.70162,52.676072 306.60903,50.186682 311.75811,47.448882 C 316.5053,44.924772 319.28081,44.340382 320.54021,45.599782 C 320.90976,45.969342 324.36403,46.405792 328.21636,46.569672 C 332.06868,46.733562 336.16839,47.374892 337.32681,47.994862 C 338.96355,48.870822 339.33943,48.841282 339.01311,47.862342 C 338.78216,47.169492 337.74406,46.477982 336.70623,46.325662 C 335.66839,46.173342 333.66779,45.725172 332.26044,45.329732 C 330.85309,44.934302 329.25162,44.569612 328.70162,44.519312 C 328.15162,44.469012 327.70162,43.977862 327.70162,43.427862 C 327.70162,42.549152 329.13921,42.482882 335.20162,43.082102 C 336.02662,43.163652 336.92662,43.499802 337.20162,43.829112 C 338.27849,45.118662 344.85199,47.133972 347.57416,47.009142 C 351.53556,46.827492 356.4822,50.865942 359.08764,56.408762 C 360.30167,58.991512 362.23378,61.369792 363.51312,61.856192 C 364.762,62.331022 366.39135,63.451552 367.1339,64.346262 C 367.90194,65.271692 369.25059,65.729712 370.26215,65.408652 C 371.43243,65.037222 372.23838,65.468322 372.61968,66.669702 C 372.93834,67.673692 374.43713,69.205172 375.95034,70.073002 C 379.28622,71.986142 385.20162,73.216042 385.20162,71.996482 C 385.20162,71.511722 386.07113,71.342482 387.13387,71.620392 C 388.71203,72.033092 388.96193,71.727302 388.49759,69.951642 C 388.0993,68.428602 388.34417,67.862922 389.31534,68.062532 C 390.07779,68.219252 391.75266,67.766602 393.03727,67.056642 C 396.01089,65.413232 397.35204,66.613492 394.70492,68.549112 C 392.61246,70.079152 392.64114,70.131262 397.04298,72.797232 C 398.15571,73.471152 398.1243,74.361142 396.85872,78.018742 C 396.01964,80.443762 394.81961,82.304062 394.192,82.152742 C 393.48015,81.981112 393.28648,82.619862 393.67714,83.850752 C 394.15462,85.355152 393.59213,86.191682 391.30926,87.372202 C 389.66248,88.223782 388.07395,88.530302 387.77918,88.053362 C 386.67989,86.274672 380.91632,85.884782 378.55861,87.429612 C 377.28504,88.264082 375.13337,89.038672 373.77713,89.150922 C 371.89009,89.307102 371.56186,89.656992 372.37887,90.641432 C 373.6396,92.160522 374.59073,92.366472 373.70162,90.927862 C 373.3617,90.377862 373.54431,89.927862 374.10742,89.927862 C 375.40824,89.927862 377.34029,93.455862 376.49977,94.296382 C 376.15245,94.643692 374.81829,94.927862 373.53495,94.927862 C 372.00554,94.927862 371.20162,95.513572 371.20162,96.627862 C 371.20162,97.950082 370.93495,98.061192 370.00162,97.127862 C 369.34162,96.467862 368.02462,95.927862 367.07494,95.927862 C 366.12527,95.927862 365.11968,95.140362 364.8403,94.177862 C 364.54691,93.167112 364.41033,93.483932 364.51698,94.927862 C 364.64438,96.652912 365.21953,97.342412 366.37242,97.152212 C 367.29136,97.000602 369.164,97.915272 370.53385,99.184792 C 372.48606,100.99404 372.80763,101.8805 372.02138,103.28545 C 371.46968,104.27128 371.24345,105.30303 371.51865,105.57822 C 371.79385,105.85342 372.31542,105.14467 372.6777,104.00322 C 374.26638,98.997752 377.71716,104.78119 376.8959,111.07282 C 376.60149,113.32824 376.92283,115.23435 377.73882,116.07282 C 379.35469,117.73322 378.51803,122.92786 376.63473,122.92786 C 375.90118,122.92786 374.94114,123.49036 374.50131,124.17786 C 374.06148,124.86536 371.35637,126.60731 368.48995,128.04886 C 363.77762,130.41873 363.07748,130.52921 361.18255,129.20195 C 360.0299,128.3946 358.55015,127.6525 357.89422,127.55283 C 357.23829,127.45316 356.05908,126.97075 355.27374,126.48079 C 354.48841,125.99083 352.36441,125.52949 350.55374,125.45558 C 346.33716,125.28346 345.87182,124.7458 347.27464,121.66695 C 348.56214,118.84119 351.48804,116.97412 355.25881,116.57209 C 356.64889,116.42388 358.24872,116.01678 358.81399,115.66743 C 359.37927,115.31807 361.1569,114.79375 362.76428,114.50228 C 364.37167,114.2108 365.84281,113.50428 366.0335,112.93223 C 366.22418,112.36019 367.06269,111.20965 367.89685,110.37549 C 369.145,109.12734 369.69633,109.08624 371.011,110.14334 C 372.07653,111.00013 371.95801,110.54644 370.65505,108.78089 C 369.58066,107.32506 368.39521,106.3199 368.02072,106.5472 C 367.64622,106.77451 367.05503,106.49969 366.70696,105.9365 C 366.29205,105.26517 365.59143,105.34565 364.67257,106.17019 C 361.45988,109.0531 360.5044,109.63505 357.91802,110.28419 C 356.424,110.65917 355.20162,111.39825 355.20162,111.9266 C 355.20162,112.45494 353.73912,112.07019 351.95162,111.07159 C 348.10499,108.92264 348.00061,108.27015 350.91148,104.56959 C 353.13188,101.7468 355.20162,101.74136 355.20162,104.55831 C 355.20162,105.85434 355.43702,105.83532 356.84694,104.4254 C 358.02698,103.24536 358.69459,103.10748 359.20777,103.93782 C 359.69353,104.72379 360.14551,104.51647 360.61531,103.29219 C 360.99592,102.30034 360.98196,101.81418 360.5843,102.21185 C 360.18663,102.60951 358.83643,102.26337 357.58384,101.44265 C 356.33126,100.62192 354.60273,100.22044 353.74268,100.55048 C 352.54952,101.00833 352.34208,100.70943 352.86734,99.289202 C 353.24596,98.265462 353.97678,97.144952 354.49139,96.799182 C 355.8804,95.865892 353.00506,90.513692 350.89652,90.107622 C 349.91209,89.918042 347.50929,90.981282 345.55697,92.470392 C 343.60465,93.959502 340.85747,95.177862 339.45213,95.177862 C 337.12546,95.177862 337.06708,95.271972 338.79929,96.230272 C 339.84557,96.809092 341.17446,97.917342 341.75238,98.693042 C 342.3303,99.468742 344.61882,100.1764 346.83797,100.26563 C 350.33027,100.40605 350.80825,100.69678 350.39277,102.42786 C 349.63108,105.60146 348.15329,106.92786 345.37918,106.92786 C 343.37441,106.92786 343.06829,107.19453 344.00162,108.12786 C 345.73171,109.85795 345.49099,110.70124 343.04549,111.47741 C 341.85963,111.85379 339.87961,113.25129 338.64545,114.58297 C 337.4113,115.91464 335.44874,117.18769 334.28422,117.41195 C 333.1197,117.63622 331.43433,118.55229 330.53895,119.44767 C 328.54161,121.44501 327.28591,119.93778 327.96923,116.36321 C 328.47865,113.69834 330.09785,113.22926 332.06087,115.17786 C 333.07113,116.1807 333.17884,116.03241 332.60563,114.42786 C 332.21267,113.32786 331.39851,111.77898 330.79639,110.9859 C 329.96671,109.89311 330.0043,109.72579 330.95162,110.29492 C 331.81381,110.8129 332.17713,110.32952 332.12267,108.73688 C 332.07925,107.46692 331.81675,106.99036 331.53934,107.67786 C 331.26193,108.36536 330.17245,108.92786 329.11829,108.92786 C 327.86829,108.92786 327.20162,109.62351 327.20162,110.92786 C 327.20162,113.70656 325.75003,113.4269 324.36214,110.38081 C 322.99246,107.37471 322.8584,105.5977 324.05716,106.33858 C 324.52771,106.6294 324.70805,105.79676 324.45792,104.48828 C 324.20779,103.17979 323.14779,101.88554 322.10238,101.61216 C 320.90692,101.29954 320.20162,100.23271 320.20162,98.737092 C 320.20162,97.169862 319.20614,95.771032 317.28192,94.634372 C 315.40186,93.523792 313.86085,91.399562 312.9542,88.668762 C 311.62765,84.673232 311.30478,84.410072 307.3739,84.120362 C 304.78517,83.929572 303.20162,84.236632 303.20162,84.929382 C 303.20162,85.543462 303.65162,85.767782 304.20162,85.427862 C 304.75162,85.087942 305.20162,85.270552 305.20162,85.833662 C 305.20162,87.186082 301.86112,88.927862 299.26736,88.927862 C 298.1312,88.927862 297.20162,88.391852 297.20162,87.736732 C 297.20162,87.081612 296.59899,87.369742 295.86245,88.377032 C 294.59194,90.114552 294.48851,90.117852 293.84519,88.441412 C 293.14433,86.615002 294.4146,84.388862 297.45162,82.121162 C 298.41412,81.402472 299.20162,79.995072 299.20162,78.993602 C 299.20162,77.016552 301.87578,74.268682 302.85086,75.243772 C 303.18137,75.574272 302.58428,77.598052 301.52401,79.741062 C 299.69973,83.428252 299.69301,83.612122 301.39893,83.166012 C 302.39041,82.906732 303.20162,82.072082 303.20162,81.311232 C 303.20162,80.005432 305.5117,79.474792 309.45162,79.875562 C 310.41412,79.973472 311.20162,79.398442 311.20162,78.597712 C 311.20162,77.796982 311.87662,76.882822 312.70162,76.566232 C 313.55389,76.239192 314.20162,74.748542 314.20162,73.114232 C 314.20162,71.507832 315.08466,69.438692 316.20162,68.427862 C 317.30162,67.432372 318.20162,65.646822 318.20162,64.459962 C 318.20162,61.944772 313.46952,57.057202 310.47621,56.480742 C 307.38153,55.884762 303.90079,59.583232 304.52603,62.803122 C 305.16004,66.068112 304.26439,70.927862 303.02865,70.927862 C 302.52102,70.927862 301.08038,69.735872 299.82722,68.278992 L 297.54876,65.630112 L 295.29363,69.278992 C 292.84924,73.234092 291.70127,73.621452 288.84228,71.455862 C 286.48814,69.672672 283.20162,71.414812 283.20162,74.445902 C 283.20162,75.566222 282.4728,77.523382 281.58202,78.795152 C 280.28875,80.641552 280.188,81.602562 281.08202,83.564712 C 282.64345,86.991682 282.47815,91.341872 280.6205,95.709982 C 278.7257,100.16548 278.35017,101.85305 277.98239,107.56545 C 277.82796,109.96389 277.40857,111.92661 277.0504,111.92706 C 275.15184,111.9294 272.06638,119.72446 271.79417,125.2063 C 271.58121,129.49508 271.03204,131.44325 269.84951,132.10503 C 268.94317,132.61225 268.20162,133.81488 268.20162,134.77755 C 268.20162,135.74022 267.69679,137.03269 267.07978,137.6497 C 265.71281,139.01667 265.65675,148.6437 266.95297,159.42786 C 268.4109,171.55745 266.41742,173.37276 258.37883,167.23566 z M 362.69454,99.939312 C 363.04488,99.372452 362.64348,99.204812 361.75356,99.546302 C 360.02114,100.21109 359.70417,100.92786 361.1426,100.92786 C 361.66014,100.92786 362.35852,100.48301 362.69454,99.939312 z M 330.20162,89.368842 C 330.20162,89.126302 329.50006,88.927862 328.6426,88.927862 C 327.78514,88.927862 327.36624,89.385202 327.7117,89.944172 C 328.28251,90.867752 330.20162,90.424322 330.20162,89.368842 z M 336.12267,85.177862 C 336.07768,83.610472 335.80491,83.072922 335.4884,83.927862 C 335.18297,84.752862 334.4884,85.990362 333.9449,86.677862 C 333.23942,87.570272 333.42086,87.927862 334.57918,87.927862 C 335.70159,87.927862 336.17729,87.080322 336.12267,85.177862 z M 330.70162,84.927862 C 329.70613,83.827862 328.46154,82.927862 327.93585,82.927862 C 327.41016,82.927862 328.0424,83.812892 329.34084,84.894592 C 332.39668,87.440362 332.9885,87.454832 330.70162,84.927862 z M 371.70162,66.927862 C 370.90968,65.646482 370.20162,65.646482 370.20162,66.927862 C 370.20162,67.477862 370.67818,67.927862 371.26064,67.927862 C 371.8431,67.927862 372.04154,67.477862 371.70162,66.927862 z M 359.72639,137.56963 C 358.51698,136.68529 358.16986,135.6033 358.63022,134.15282 C 359.29803,132.04874 359.32098,132.04722 361.25277,133.97901 C 364.42065,137.14689 363.17039,140.08795 359.72639,137.56963 z M 396.45162,137.20762 C 394.92325,136.66178 394.77039,129.31241 396.26815,128.38674 C 397.98519,127.32555 398.33429,128.44871 397.2081,131.41081 C 396.44759,133.41111 396.47912,134.5573 397.32263,135.57366 C 398.65008,137.17314 398.28303,137.8617 396.45162,137.20762 z M 505.074,137.08938 C 504.6726,135.0088 504.1895,132.17728 503.93744,130.42786 C 503.77895,129.32786 502.65623,126.25053 501.44252,123.58935 C 499.47396,119.27308 499.39885,118.58778 500.74658,117.24004 C 501.82234,116.16428 502.61895,116.02932 503.51304,116.77135 C 504.26375,117.39439 505.33773,117.46177 506.18374,116.93891 C 507.16149,116.33463 508.31,116.83178 509.9002,118.54763 C 511.16598,119.91343 512.20162,120.76498 512.20162,120.43996 C 512.20162,120.11493 512.82705,120.42925 513.59146,121.13843 C 514.35588,121.84762 514.766,123.32786 514.50284,124.42786 C 514.23969,125.52786 513.81195,127.55286 513.55232,128.92786 C 513.29269,130.30286 512.88749,132.38659 512.65188,133.55837 C 512.27281,135.4436 510.79476,136.36944 506.45162,137.44215 C 505.76412,137.61196 505.14419,137.45321 505.074,137.08938 z M 539.90664,130.60328 C 537.98156,129.06736 536.85432,123.91452 536.37662,114.46682 C 536.27685,112.49361 535.35396,110.21606 534.22979,109.16873 C 531.25806,106.40014 527.20162,98.197422 527.20162,94.956732 C 527.20162,90.849442 526.24851,88.927862 524.21126,88.927862 C 522.21624,88.927862 521.23566,86.246972 521.21527,80.736882 C 521.20776,78.706842 520.75162,76.767782 520.20162,76.427862 C 519.65162,76.087942 519.20162,75.108922 519.20162,74.252272 C 519.20162,73.121912 519.9011,72.828422 521.7519,73.182222 C 524.26139,73.661942 524.29738,73.582262 524.00228,68.200392 C 523.78436,64.226092 523.22391,62.474982 521.952,61.794272 C 520.98929,61.279042 520.20162,61.251862 520.20162,61.733872 C 520.20162,62.215882 518.73912,62.569212 516.95162,62.519062 C 513.78832,62.430292 513.70551,62.534572 513.84741,66.427862 C 513.92759,68.627862 514.29462,71.777862 514.66302,73.427862 C 515.26765,76.135882 515.19407,76.257542 513.90699,74.677862 C 513.12277,73.715362 512.19324,72.927862 511.84138,72.927862 C 511.48951,72.927862 511.20162,76.051302 511.20162,79.868842 C 511.20162,83.686382 510.74428,87.092482 510.18531,87.437942 C 509.62634,87.783402 509.40868,88.453872 509.70162,88.927862 C 509.99456,89.401852 509.82913,90.040042 509.33399,90.346052 C 508.83885,90.652072 507.85942,89.515942 507.15749,87.821332 C 506.07797,85.215122 506.12532,84.327032 507.46472,82.059612 C 508.92644,79.585112 508.91383,79.265552 507.30064,77.903432 C 504.61804,75.638342 500.78869,50.936582 503.36719,52.530192 C 504.18047,53.032822 504.66694,50.199072 504.37185,46.677862 C 504.29119,45.715362 504.64874,44.927862 505.16641,44.927862 C 506.37355,44.927862 508.15942,51.327732 507.60133,53.653662 C 507.12885,55.622762 507.67799,56.563172 510.87953,59.267612 C 513.03015,61.084302 513.07805,61.067502 514.70188,57.927352 C 515.60633,56.178352 516.09636,54.095932 515.79083,53.299752 C 515.48531,52.503572 515.92861,51.586122 516.77595,51.260962 C 517.62329,50.935812 518.07085,50.029472 517.77055,49.246882 C 517.47024,48.464292 517.65501,48.090042 518.18116,48.415222 C 518.77552,48.782552 519.00767,44.846662 518.79418,38.022122 C 518.48505,28.140522 518.65162,26.821962 520.45338,24.888002 C 522.69989,22.476652 524.46878,22.590472 532.93146,25.690872 C 535.97309,26.805202 539.10223,28.824652 540.41013,30.517372 C 541.647,32.118142 543.23107,34.022502 543.9303,34.749292 C 544.62952,35.476072 545.20162,36.906432 545.20162,37.927862 C 545.20162,38.949292 545.78035,40.379652 546.48769,41.106432 C 548.80504,43.487482 550.39222,50.906612 549.68473,56.050692 C 549.23464,59.323232 549.37383,60.927862 550.10778,60.927862 C 550.70939,60.927862 551.20162,61.651002 551.20162,62.534852 C 551.20162,63.552442 550.65146,63.930722 549.70162,63.566232 C 547.76741,62.824012 547.79072,63.659812 549.75913,65.628232 C 550.66602,66.535122 551.02979,67.862912 550.62995,68.806802 C 549.35915,71.806742 549.46995,81.390552 550.82878,86.005332 C 551.5701,88.522942 552.41795,92.503472 552.7129,94.850962 C 553.00785,97.198462 553.91347,100.40375 554.72539,101.97384 C 555.53732,103.54392 556.24648,107.21339 556.3013,110.1282 C 556.35612,113.04301 556.72178,116.55286 557.11388,117.92786 C 557.50597,119.30286 557.40333,122.12735 556.8858,124.2045 C 556.14881,127.16243 555.56325,127.86002 554.18465,127.42247 C 553.21656,127.11521 550.84617,127.79505 548.91712,128.93322 C 544.42663,131.58267 541.75486,132.07787 539.90664,130.60328 z M 381.20162,129.1187 C 381.20162,127.87921 381.89603,126.59862 382.74475,126.27294 C 385.35179,125.27252 385.70886,126.86507 383.39606,129.17786 L 381.20162,131.3723 L 381.20162,129.1187 z M 390.55876,124.42786 C 392.47416,122.51246 393.29825,122.51246 392.56325,124.42786 C 392.24666,125.25286 391.32864,125.92786 390.5232,125.92786 C 389.25309,125.92786 389.25781,125.72882 390.55876,124.42786 z M 520.20162,119.03551 C 520.20162,117.17015 520.61745,116.06682 521.18766,116.41923 C 522.23846,117.06866 522.04766,120.41515 520.89406,121.56876 C 520.51322,121.9496 520.20162,120.80964 520.20162,119.03551 z M 191.95162,119.59607 C 190.7522,116.66662 191.00504,109.33128 192.26211,110.58835 C 192.84538,111.17162 193.18288,113.84912 193.01211,116.53835 C 192.79937,119.88857 192.46551,120.85119 191.95162,119.59607 z M 510.36292,114.88083 C 507.30243,113.01865 507.06254,112.51762 507.48411,108.86802 C 507.73705,106.67828 507.55196,104.64438 507.07281,104.34825 C 506.59366,104.05212 506.20162,103.33128 506.20162,102.7464 C 506.20162,102.07581 506.75573,102.14284 507.70162,102.92786 C 508.63226,103.70022 509.20162,105.89761 509.20162,108.71697 C 509.20162,111.21629 509.52576,112.93706 509.92192,112.54089 C 510.31809,112.14472 510.58241,110.15722 510.5093,108.12422 C 510.43619,106.09122 510.59335,105.44036 510.85855,106.67786 C 511.41997,109.29767 512.45678,109.53027 514.20162,107.42786 C 514.88631,106.60286 515.84141,105.92786 516.32406,105.92786 C 517.8266,105.92786 517.29025,107.83923 515.20162,109.92786 C 513.20162,111.92786 513.20162,111.92786 515.20162,111.92786 C 516.31273,111.92786 517.20162,112.59453 517.20162,113.42786 C 517.20162,114.25286 516.56412,114.92786 515.78495,114.92786 C 515.00579,114.92786 514.21829,115.37435 514.03495,115.92007 C 513.85162,116.46578 512.1992,115.99812 510.36292,114.88083 z M 520.85461,114.1754 C 520.56294,113.70348 520.36645,111.83529 520.41795,110.02387 C 520.48905,107.52328 520.72806,107.11718 521.41073,108.33703 C 521.90525,109.2207 522.03395,110.39014 521.69673,110.93578 C 521.3595,111.48142 521.82264,111.92786 522.72594,111.92786 C 523.62923,111.92786 524.19016,112.46224 523.97245,113.11536 C 523.46519,114.63715 521.54373,115.29043 520.85461,114.1754 z M 475.20162,111.92786 C 474.61292,110.82786 474.40167,109.92786 474.73218,109.92786 C 476.06241,109.92786 479.20162,112.05969 479.20162,112.96304 C 479.20162,114.71752 476.29155,113.96441 475.20162,111.92786 z M 485.45162,113.26558 C 483.93357,112.65303 483.80747,110.28949 485.24542,109.40079 C 485.81952,109.04598 486.94452,109.29952 487.74542,109.96421 C 488.91555,110.93533 489.20162,110.86326 489.20162,109.59736 C 489.20162,106.6423 491.51873,102.92786 493.36214,102.92786 C 494.37385,102.92786 495.20162,103.37786 495.20162,103.92786 C 495.20162,104.86697 493.74543,105.34603 491.87729,105.0215 C 491.42391,104.94275 491.33222,105.33016 491.67353,105.88242 C 492.01485,106.43468 491.7784,107.85013 491.1481,109.02787 C 490.35105,110.51716 490.33697,110.96224 491.10185,110.48952 C 491.70672,110.11569 492.20162,110.27055 492.20162,110.83366 C 492.20162,112.83642 488.07374,114.32363 485.45162,113.26558 z M 492.82635,109.12968 C 492.50869,108.61569 493.21552,107.34751 494.3971,106.31151 C 495.57867,105.2755 496.23572,104.95927 495.8572,105.60876 C 495.47869,106.25826 495.62634,107.07232 496.18531,107.41778 C 497.45147,108.20031 497.48967,105.93172 496.24351,103.9614 C 494.76906,101.63011 496.88907,99.715722 499.2869,101.21319 C 501.27711,102.4561 501.95069,105.92786 500.20162,105.92786 C 499.65162,105.92786 499.20162,106.60286 499.20162,107.42786 C 499.20162,108.25286 498.56342,108.92786 497.78341,108.92786 C 497.00339,108.92786 495.69891,109.18354 494.88456,109.49603 C 494.07021,109.80853 493.14402,109.64367 492.82635,109.12968 z M 521.72261,103.96182 C 520.82046,102.50212 519.23701,96.927862 519.72451,96.927862 C 520.46873,96.927862 523.45603,104.00678 522.93266,104.53015 C 522.64074,104.82207 522.09621,104.56633 521.72261,103.96182 z M 288.28057,102.51119 C 288.23715,101.45703 288.4735,100.8664 288.80579,101.19869 C 289.13808,101.53099 289.1736,102.39348 288.88473,103.11536 C 288.56551,103.91309 288.32855,103.67614 288.28057,102.51119 z M 204.20162,101.48688 C 204.20162,101.24434 204.65162,100.76778 205.20162,100.42786 C 205.75162,100.08794 206.20162,100.28638 206.20162,100.86884 C 206.20162,101.4513 205.75162,101.92786 205.20162,101.92786 C 204.65162,101.92786 204.20162,101.72942 204.20162,101.48688 z M 375.50631,99.870712 C 375.95171,98.167532 375.79555,98.019982 374.59878,99.013212 C 373.80376,99.673022 372.87504,99.934612 372.53495,99.594532 C 371.54731,98.606882 374.21533,95.995892 375.64973,96.546322 C 377.16003,97.125882 377.43688,101.92786 375.95999,101.92786 C 375.41459,101.92786 375.21044,101.00214 375.50631,99.870712 z M 460.45709,98.605632 C 459.38049,97.407852 458.25701,95.752862 457.96045,94.927862 C 457.07192,92.456052 450.34063,89.368482 448.38019,90.533502 C 445.37479,92.319502 443.19824,91.079852 443.23758,87.604542 L 443.27355,84.427862 L 445.59634,87.267142 C 447.55342,89.659392 448.01882,89.846622 448.55234,88.456292 C 449.01723,87.244812 450.17373,86.888802 452.90303,87.117022 C 455.95136,87.371912 457.11746,88.147872 459.3813,91.427862 C 460.89973,93.627862 461.96415,95.939432 461.74667,96.564682 C 461.50607,97.256412 462.10499,97.504382 463.27644,97.198042 C 464.54883,96.865302 465.20162,97.206482 465.20162,98.204242 C 465.20162,100.70288 462.54423,100.92769 460.45709,98.605632 z M 512.20162,98.368842 C 512.20162,97.511382 512.65162,97.087942 513.20162,97.427862 C 514.49553,98.227542 514.49553,99.927862 513.20162,99.927862 C 512.65162,99.927862 512.20162,99.226302 512.20162,98.368842 z M 290.02845,97.312962 C 289.61109,96.506732 289.61561,95.429162 290.04931,92.344532 C 290.13308,91.748692 290.87662,91.261192 291.70162,91.261192 C 292.52662,91.261192 293.18567,91.748692 293.16618,92.344532 C 293.10684,94.158672 290.51781,98.258272 290.02845,97.312962 z M 505.20162,97.032382 C 505.20162,95.681442 506.3525,95.048532 507.79939,95.603752 C 509.83593,96.385252 509.51702,97.478492 507.20162,97.652912 C 506.10162,97.735772 505.20162,97.456532 505.20162,97.032382 z M 511.16972,93.343942 C 510.20728,90.812552 510.58751,88.927862 512.06064,88.927862 C 512.46818,88.927862 512.80162,90.502862 512.80162,92.427862 C 512.80162,96.604112 512.47825,96.785642 511.16972,93.343942 z M 291.70162,83.927862 C 292.04154,83.377862 292.76965,82.927862 293.31965,82.927862 C 293.86965,82.927862 294.04154,83.377862 293.70162,83.927862 C 293.3617,84.477862 292.63359,84.927862 292.08359,84.927862 C 291.53359,84.927862 291.3617,84.477862 291.70162,83.927862 z M 512.36829,80.927862 C 512.87164,79.417812 514.47973,79.262192 514.95162,80.677862 C 515.18079,81.365362 514.61829,81.927862 513.70162,81.927862 C 512.78495,81.927862 512.18495,81.477862 512.36829,80.927862 z M 499.71786,48.979012 C 499.37766,47.907152 498.26391,46.765022 497.24285,46.440952 C 495.36245,45.844132 493.57283,42.927862 495.08698,42.927862 C 496.58162,42.927862 501.20162,47.802952 501.20162,49.380112 C 501.20162,51.518442 500.46023,51.318032 499.71786,48.979012 z M 493.39657,37.427862 C 493.37619,35.777862 493.58363,34.981802 493.85756,35.658832 C 494.13148,36.335862 494.14815,37.685862 493.89461,38.658832 C 493.64107,39.631802 493.41695,39.077862 493.39657,37.427862 z M 547.70162,35.927862 C 547.33922,34.277862 546.62846,32.927862 546.12216,32.927862 C 545.61587,32.927862 545.20162,32.290362 545.20162,31.511192 C 545.20162,30.732032 544.63912,29.884422 543.95162,29.627622 C 543.13481,29.322522 543.36207,28.889302 544.60738,28.377532 C 547.33321,27.257332 550.31232,31.214332 550.01927,35.565852 C 549.7384,39.736362 548.57792,39.917622 547.70162,35.927862 z M 394.70162,17.927862 C 394.3617,17.377862 394.56014,16.927862 395.1426,16.927862 C 395.72506,16.927862 396.20162,17.377862 396.20162,17.927862 C 396.20162,19.209242 395.49356,19.209242 394.70162,17.927862 z M 492.41181,5.4898322 C 490.94714,2.2752422 491.3259,1.1677622 493.14169,3.3556522 C 493.81549,4.1675222 494.21605,5.6144422 494.03183,6.5710222 C 493.77492,7.9050022 493.39745,7.6530822 492.41181,5.4898322 z M 464.20162,-11.072138 C 463.40848,-11.562328 463.09151,-12.295358 463.49725,-12.701098 C 463.90299,-13.106838 464.75995,-12.913808 465.40162,-12.272138 C 466.91253,-10.761228 466.06921,-9.9179078 464.20162,-11.072138 z M 459.20162,-12.072138 C 459.20162,-12.622138 459.65162,-13.072138 460.20162,-13.072138 C 460.75162,-13.072138 461.20162,-12.622138 461.20162,-12.072138 C 461.20162,-11.522138 460.75162,-11.072138 460.20162,-11.072138 C 459.65162,-11.072138 459.20162,-11.522138 459.20162,-12.072138 z M 508.20162,-23.549098 C 505.72662,-24.861728 501.60132,-26.452348 499.03429,-27.083818 C 494.63972,-28.164858 490.20671,-31.410558 491.44014,-32.643998 C 491.74792,-32.951768 493.95766,-32.658068 496.35068,-31.991328 C 498.7437,-31.324588 501.63908,-30.720938 502.78485,-30.649888 C 505.66294,-30.471408 509.59427,-27.733818 512.17284,-24.112568 C 514.75591,-20.484968 514.1431,-20.398018 508.20162,-23.549098 z M 486.28339,-26.209358 C 482.67076,-32.205638 480.95641,-34.072138 479.06155,-34.072138 C 478.03859,-34.072138 477.20162,-34.516178 477.20162,-35.058898 C 477.20162,-35.856698 482.89044,-35.919048 488.55861,-35.183368 C 489.02995,-35.122188 489.16211,-34.411548 488.85228,-33.604158 C 488.54246,-32.796778 488.71931,-31.870218 489.24529,-31.545148 C 490.83274,-30.564048 490.35551,-28.075848 488.70162,-28.710508 C 486.92361,-29.392798 486.81423,-28.664508 488.28264,-25.920748 C 490.15104,-22.429618 488.4091,-22.681078 486.28339,-26.209358 z "
         style="fill:url(#radialGradient1982);fill-opacity:1"
         id="path14257" />
    </g>
  </g>
  <text
     id="text2427"
     y="221.93864"
     x="806.60858"
     style="font-size:68.92487335px;font-style:normal;font-weight:normal;text-align:center;text-anchor:middle;fill:#2b0000;fill-opacity:1;stroke:none;stroke-width:1px;stroke-linecap:butt;stroke-linejoin:miter;stroke-opacity:1;font-family:Bitstream Vera Sans"
     xml:space="preserve"
     transform="scale(0.937322,1.066869)"><tspan
       style="font-size:88.6177063px;font-weight:bold;fill:#444444"
       y="221.93864"
       x="822.01283"
       id="tspan2429"
       sodipodi:role="line">WIKI<tspan
   style="fill:#2b000b;fill-opacity:1"
   id="tspan4195"><tspan
     style="fill:#999999"
     id="tspan4199">NEWS </tspan></tspan></tspan></text>
  <text
     id="text2433"
     y="126.8813"
     x="780.86945"
     style="font-size:92.97505188px;font-style:normal;font-weight:normal;text-align:center;text-anchor:middle;fill:#2b0000;fill-opacity:1;stroke:none;stroke-width:1px;stroke-linecap:butt;stroke-linejoin:miter;stroke-opacity:1;font-family:Bitstream Vera Sans"
     xml:space="preserve"
     transform="scale(0.964583,1.036718)"><tspan
       style="font-size:119.53936768px;font-weight:bold;fill:#2b0000"
       y="126.8813"
       x="780.86944"
       id="tspan2435"
       sodipodi:role="line"><tspan
         id="tspan2437"
         style="fill:#aa0000">MÉDIAS</tspan></tspan></text>
</svg>
